<?xml version="1.0" standalone="no"?>
<!DOCTYPE svg PUBLIC "-//W3C//DTD SVG 20010904//EN"
 "http://www.w3.org/TR/2001/REC-SVG-20010904/DTD/svg10.dtd">
<svg version="1.0" xmlns="http://www.w3.org/2000/svg"
 width="1800.000000pt" height="1149.000000pt" viewBox="0 0 1800.000000 1149.000000"
 preserveAspectRatio="xMidYMid meet">
<g transform="translate(0.000000,1149.000000) scale(0.100000,-0.100000)"
fill="#cc0000" stroke="none">
<path d="M13023 7330 c-29 -10 -68 -31 -87 -45 l-35 -27 -22 -56 -21 -57 0
-60 0 -60 17 -45 c26 -65 60 -107 108 -132 l42 -23 87 0 87 0 58 41 c32 23 71
59 87 82 l29 40 5 70 4 69 -12 39 c-19 59 -51 96 -121 139 l-64 39 -55 3 -55
3 -52 -20z"/>
<path d="M10225 7046 l-70 -24 -48 -52 c-26 -29 -60 -75 -75 -104 l-27 -51 -6
-1130 -6 -1130 17 -19 18 -18 78 11 c153 21 210 55 270 163 l29 53 0 130 c0
72 -2 262 -4 423 -2 161 0 296 3 300 4 4 367 7 807 8 l798 0 9 -26 10 -26 -8
-180 c-5 -98 -11 -322 -14 -497 l-6 -317 21 -21 21 -21 71 7 72 7 62 28 62 28
20 39 c11 22 29 66 40 99 l20 60 2 1118 1 1118 -16 17 -17 16 -68 -1 -68 0
-54 -33 c-30 -18 -71 -49 -91 -69 l-38 -36 -16 -50 -17 -50 5 -404 6 -403 -22
-13 -21 -13 -375 9 c-206 4 -553 5 -771 2 l-395 -6 -18 18 -19 18 7 415 c4
229 9 452 12 496 l6 80 -19 22 -18 22 -45 6 -45 5 -70 -24z"/>
<path d="M2196 7053 c-4 -5 -402 -8 -884 -8 l-877 0 -62 -34 c-35 -18 -74 -49
-88 -67 l-26 -34 -21 -77 -21 -78 -2 -360 c-1 -198 -3 -692 -5 -1098 l-2 -739
13 -12 14 -12 950 6 950 5 35 19 c61 33 89 59 124 110 l34 51 18 73 18 72 -20
19 -19 18 -860 -7 c-473 -3 -864 -3 -869 1 l-9 8 -1 862 -1 863 15 18 15 18
280 -8 c154 -4 492 -5 752 -2 l472 5 28 23 c15 12 52 39 80 58 73 51 133 162
133 246 l0 37 -16 15 -15 16 -63 0 c-34 0 -66 -3 -70 -7z"/>
<path d="M3020 6475 c-142 -32 -213 -92 -276 -233 -29 -65 -30 -93 -6 -120
l17 -20 710 8 710 7 40 -15 c67 -25 135 -109 168 -206 l17 -50 0 -290 0 -291
-19 -53 c-23 -63 -77 -144 -125 -191 -20 -19 -36 -37 -36 -42 0 -13 -136 -90
-177 -100 l-38 -10 -408 1 -409 0 -31 14 c-40 17 -77 53 -108 103 l-24 38 0
95 0 95 22 40 c25 46 65 86 109 109 l32 15 373 0 c546 1 588 10 649 153 l22
52 2 49 1 49 -20 14 -20 15 -540 -3 -540 -4 -60 -17 c-33 -10 -89 -32 -124
-50 l-64 -32 -64 -63 -64 -62 -29 -62 c-16 -34 -35 -87 -41 -117 l-11 -55 4
-151 4 -150 32 -79 c91 -224 200 -297 487 -327 l120 -12 305 7 c332 7 412 15
486 46 l49 21 78 82 c42 45 84 92 92 104 8 12 24 24 35 28 l21 7 14 -12 15
-12 0 -113 0 -112 20 -18 20 -18 83 5 83 6 35 17 c54 27 87 64 111 124 l23 56
3 495 3 495 -15 160 -15 160 -33 63 -32 64 -93 92 -92 93 -67 33 c-135 66
-241 76 -929 82 l-430 5 -55 -12z"/>
<path d="M6330 6480 l-705 -5 -60 -18 c-147 -46 -225 -103 -313 -232 l-40 -60
-19 -70 -18 -70 0 -135 1 -135 18 -60 c10 -33 28 -73 40 -90 13 -16 35 -51 49
-76 l27 -45 68 -47 68 -46 90 -22 89 -22 540 -2 540 -1 40 -14 39 -15 32 -42
33 -43 7 -57 7 -58 -12 -69 -11 -68 -21 -29 c-11 -16 -35 -37 -52 -47 l-32
-17 -700 -5 -700 -5 -26 -15 c-59 -33 -170 -199 -184 -275 l-6 -30 14 -19 14
-19 29 2 c16 1 378 5 804 10 l775 9 78 15 c121 24 144 38 290 174 20 20 37 43
37 53 0 9 14 45 31 81 l32 64 10 90 10 90 -12 98 -12 98 -41 87 c-72 154 -155
222 -341 281 l-52 16 -555 0 -555 1 -40 21 c-23 12 -47 34 -55 49 l-15 27 1
111 1 111 15 37 c9 20 28 44 43 54 l26 17 662 1 662 1 50 32 c28 18 69 51 92
73 l42 40 17 58 c9 31 19 76 22 99 l5 43 -13 15 -12 15 -72 -2 c-39 -1 -388
-5 -776 -8z"/>
<path d="M7467 6475 l-18 -17 23 -37 c21 -35 41 -75 114 -227 19 -40 43 -83
54 -96 10 -14 29 -52 41 -84 25 -70 115 -258 140 -295 10 -14 21 -38 25 -55
11 -44 103 -232 141 -288 18 -26 33 -52 33 -58 0 -5 9 -28 20 -50 11 -23 20
-47 20 -52 0 -6 26 -65 59 -131 32 -66 73 -151 91 -188 17 -38 38 -71 46 -74
32 -12 86 69 117 174 9 29 27 71 41 95 13 24 29 61 35 84 l11 40 -9 30 c-17
54 -88 218 -163 374 -41 85 -83 177 -93 204 -10 27 -43 97 -74 155 -31 58 -64
126 -74 151 -10 25 -40 87 -65 138 l-47 94 -51 44 c-28 24 -68 51 -90 60 l-39
17 -136 5 -135 4 -17 -17z"/>
<path d="M9433 6480 l-101 -7 -29 -21 c-39 -28 -133 -128 -133 -142 0 -7 -13
-31 -29 -55 -16 -23 -38 -69 -51 -101 -12 -32 -53 -119 -91 -192 -38 -73 -69
-139 -69 -147 0 -7 -40 -94 -89 -192 -49 -98 -105 -220 -126 -272 -20 -52 -54
-127 -75 -165 -22 -39 -55 -112 -74 -161 -30 -79 -119 -266 -203 -430 -137
-266 -149 -284 -203 -317 l-35 -21 -150 -7 -150 -8 -60 -20 -60 -21 -48 -52
c-55 -59 -101 -145 -112 -206 l-7 -41 21 -21 21 -21 233 5 c370 9 444 24 554
108 30 23 70 52 87 65 36 26 85 82 86 98 0 6 13 29 28 50 45 63 128 225 145
284 9 30 27 71 40 90 12 19 31 55 42 80 10 25 31 63 46 85 14 22 32 58 39 80
25 79 100 237 141 296 10 14 21 38 25 55 8 32 63 146 131 268 23 43 43 84 43
92 0 14 57 135 91 194 34 60 108 219 125 268 8 26 28 70 43 97 49 86 191 370
191 383 0 32 -42 36 -237 22z"/>
<path d="M13160 6478 l-54 -10 -66 -43 c-79 -52 -81 -54 -108 -130 l-22 -60
-4 -395 c-3 -217 -6 -595 -6 -839 l-1 -443 18 -20 17 -19 58 5 c68 7 142 22
179 37 l27 11 45 66 c26 37 51 79 56 93 l10 27 1 843 c1 464 1 849 1 855 -2
30 -59 38 -151 22z"/>
<path d="M15045 6479 l-330 -7 -55 -20 c-30 -10 -86 -35 -125 -55 l-70 -35
-98 -106 c-54 -58 -105 -106 -112 -106 l-14 0 -9 34 c-5 18 -7 62 -4 97 3 35
6 85 7 111 l0 46 -20 22 -20 22 -80 -5 -81 -5 -41 -21 c-54 -27 -103 -78 -133
-138 l-25 -48 -6 -855 -5 -855 15 -19 16 -18 55 6 c30 4 81 11 113 18 l59 11
46 46 c55 53 88 116 102 192 l10 54 0 395 -1 395 11 54 c11 61 55 154 85 182
164 152 224 198 288 218 l37 13 308 1 307 2 58 30 59 29 42 47 43 48 26 73
c14 40 29 83 32 96 l7 23 -18 20 -17 19 -66 -2 c-36 -1 -214 -5 -396 -9z"/>
<path d="M16375 6471 l-100 -8 -95 -33 c-127 -43 -123 -40 -223 -142 l-87 -89
-39 -82 c-21 -45 -43 -98 -49 -117 -6 -19 -19 -60 -29 -90 l-18 -55 0 -365 0
-365 33 -103 c33 -105 105 -262 120 -262 5 0 42 -31 83 -69 119 -109 181 -133
404 -151 l140 -11 520 5 520 4 44 12 c120 30 240 168 241 277 l0 42 -12 7 c-7
4 -339 7 -738 5 l-725 -2 -54 32 c-30 17 -75 52 -101 78 l-47 47 -19 74 -19
75 1 325 1 325 23 69 23 69 40 45 c23 24 63 55 89 68 l48 24 472 1 473 0 39
-10 c51 -13 85 -47 125 -126 l33 -64 7 -84 c7 -99 0 -156 -24 -173 l-17 -13
-426 6 -427 5 -75 -15 c-168 -36 -219 -81 -260 -230 l-13 -48 17 -17 16 -16
778 -1 777 0 18 18 17 17 0 193 c-1 305 -15 410 -80 566 -71 174 -156 250
-355 321 l-90 32 -440 3 c-242 2 -485 0 -540 -4z"/>
<path d="M2050 6000 c-41 -4 -285 -8 -541 -9 l-466 -1 -41 -14 c-22 -8 -74
-38 -115 -66 l-76 -52 -30 -76 c-48 -118 -39 -165 32 -177 18 -3 282 -4 587
-2 l555 2 45 22 c25 11 66 40 93 64 l48 44 34 83 c18 46 37 96 40 112 l6 29
-25 26 -25 25 -23 -2 c-13 -1 -57 -4 -98 -8z"/>
</g>
</svg>
